# xmcd
#
# Track frame offsets: 
#        150
#        23913
#        74197
#        78036
#        100175
#        101720
#        128475
#        149261
#        155999
#        173445
#        176197
#        242751
#        264823
#        286166
#        303581
#
# Disc length: 4407 seconds
#
# Revision: 0
# Processed by: cddbd v1.5.2PL0 Copyright (c) Steve Scherf et al.
# Submitted via: ExactAudioCopy v0.99pb5
#
DISCID=cc11350f
DTITLE=Edward Ka-Spel - Kissing Frogs Is Fine
DYEAR=2005
DGENRE=Psychedelic
TTITLE0=Radio 6
TTITLE1=Belief On A Breeze
TTITLE2=Chyekk 1
TTITLE3=Lisa's Christening
TTITLE4=Klazh Tristurr
TTITLE5=Lisa's Resurrection
TTITLE6=Forbidden Zone
TTITLE7=Jey The Canary
TTITLE8=The Char Char
TTITLE9=Intermezzo
TTITLE10=Hotel Blanc
TTITLE11=Extract From 'A Birth Marked Conspiracy'
TTITLE12=Share The Day
TTITLE13=Dream Stealer
TTITLE14=Hotel X
EXTD=
EXTT0=
EXTT1=
EXTT2=
EXTT3=
EXTT4=
EXTT5=
EXTT6=
EXTT7=
EXTT8=
EXTT9=
EXTT10=
EXTT11=
EXTT12=
EXTT13=
EXTT14=
PLAYORDER=
